<svg width="50" height="50" viewBox="0 0 50 50" fill="none" xmlns="http://www.w3.org/2000/svg">
<path d="M9.09091 20V50H0V20H9.09091ZM18.1818 50C16.9763 50 15.8201 49.4732 14.9677 48.5355C14.1153 47.5979 13.6364 46.3261 13.6364 45V20C13.6364 18.625 14.1364 17.375 14.9773 16.475L29.9318 0L32.3409 2.65C32.9545 3.325 33.3409 4.25 33.3409 5.275L33.2727 6.075L31.1136 17.5H45.4545C46.6601 17.5 47.8162 18.0268 48.6687 18.9645C49.5211 19.9021 50 21.1739 50 22.5V27.5C50 28.15 49.8864 28.75 49.6818 29.325L42.8182 46.95C42.1364 48.75 40.5227 50 38.6364 50H18.1818ZM18.1818 45H38.7045L45.4545 27.5V22.5H25.4773L28.0455 9.2L18.1818 20.075V45Z" fill="black"/>
</svg>
