<svg width="1200" height="900" viewBox="0 0 1200 900" fill="none" xmlns="http://www.w3.org/2000/svg">
<rect width="1200" height="900" fill="url(#paint0_linear_102_6)"/>
<rect y="140" width="1200" height="680" fill="#1A233C"/>
<rect x="20" y="200" width="620" height="370" rx="25" fill="#536E90"/>
<rect x="20" y="630" width="260" height="170" rx="25" fill="#536E90" fill-opacity="0.69"/>
<rect x="300" y="630" width="260" height="170" rx="25" fill="#536E90" fill-opacity="0.69"/>
<rect x="640" y="630" width="260" height="170" rx="25" fill="#536E90" fill-opacity="0.69"/>
<rect x="920" y="630" width="260" height="170" rx="25" fill="#536E90" fill-opacity="0.69"/>
<g filter="url(#filter0_d_102_6)">
<rect x="660" y="520" width="240" height="50" rx="25" fill="#3AADE3"/>
</g>
<g filter="url(#filter1_d_102_6)">
<rect x="940" y="520" width="240" height="50" rx="25" fill="#F55418"/>
</g>
<path d="M762.72 543.99V558.304H768.78L769.086 558.34C774.712 559.652 778.44 560.598 780.298 561.184C782.766 561.962 783.686 562.152 785.36 562.264C786.612 562.35 788.034 561.868 788.682 561.208C789.04 560.844 789.308 560.096 789.414 558.936C789.436 558.693 789.523 558.46 789.665 558.262C789.808 558.064 790.002 557.908 790.226 557.81C790.724 557.594 791.138 557.242 791.484 556.73C791.804 556.262 792.012 555.39 792.05 554.128C792.056 553.896 792.122 553.67 792.241 553.47C792.359 553.271 792.527 553.105 792.728 552.988C793.892 552.314 794.468 551.554 794.588 550.662C794.72 549.676 794.4 548.566 793.562 547.302C793.365 547.006 793.292 546.644 793.358 546.295C793.423 545.945 793.623 545.635 793.914 545.43C794.716 544.866 795.156 544.082 795.266 542.97C795.442 541.198 794.312 539.888 791.754 539.626C789.475 539.401 787.175 539.593 784.966 540.192C784.715 540.258 784.451 540.25 784.204 540.171C783.958 540.091 783.739 539.943 783.574 539.743C783.409 539.544 783.304 539.301 783.272 539.044C783.24 538.787 783.282 538.526 783.394 538.292C784.394 536.176 784.95 534.43 785.08 533.078C785.25 531.284 784.836 529.984 783.868 528.912C783.134 528.1 781.96 527.636 781.52 527.732C780.94 527.856 780.562 528.192 780.07 529.368C779.78 530.064 779.64 530.656 779.4 532.038C779.17 533.35 779.044 533.942 778.782 534.718C777.992 537.07 776.054 539.508 773.452 541.19C771.628 542.367 769.652 543.289 767.578 543.93C767.448 543.97 767.313 543.99 767.178 543.99H762.72ZM762.636 561.03C761.99 561.048 761.41 560.904 760.924 560.564C760.304 560.13 760.012 559.446 760.006 558.658L760.012 544.012C759.944 543.232 760.174 542.516 760.718 541.984C761.228 541.484 761.894 541.248 762.598 541.264H766.968C768.735 540.701 770.421 539.906 771.98 538.9C774.076 537.544 775.62 535.6 776.21 533.848C776.412 533.244 776.52 532.744 776.724 531.568C777 529.99 777.172 529.256 777.568 528.312C778.388 526.348 779.464 525.388 780.948 525.066C782.408 524.75 784.534 525.592 785.878 527.08C787.368 528.728 788.026 530.79 787.782 533.338C787.678 534.434 787.374 535.66 786.874 537.026C788.581 536.777 790.313 536.74 792.03 536.914C796.044 537.324 798.298 539.938 797.97 543.242C797.826 544.666 797.31 545.876 796.432 546.826C797.17 548.248 797.464 549.654 797.28 551.026C797.068 552.606 796.188 553.922 794.724 554.944C794.61 556.33 794.292 557.436 793.728 558.264C793.283 558.933 792.703 559.501 792.026 559.932C791.81 561.3 791.356 562.37 790.614 563.122C789.384 564.374 787.186 565.12 785.178 564.984C783.272 564.856 782.144 564.624 779.484 563.784C777.73 563.23 774.098 562.31 768.624 561.03H762.636ZM766.038 543.368C766.037 543.189 766.072 543.012 766.14 542.846C766.208 542.681 766.308 542.53 766.435 542.404C766.561 542.277 766.711 542.177 766.876 542.108C767.042 542.039 767.219 542.004 767.398 542.004C767.576 542.005 767.753 542.04 767.918 542.109C768.083 542.178 768.232 542.279 768.358 542.405C768.484 542.532 768.584 542.682 768.652 542.847C768.719 543.012 768.754 543.189 768.754 543.368V558.724C768.754 558.903 768.719 559.08 768.651 559.245C768.583 559.41 768.483 559.56 768.357 559.686C768.231 559.813 768.081 559.913 767.916 559.982C767.751 560.05 767.574 560.086 767.396 560.086C767.217 560.086 767.04 560.05 766.875 559.982C766.71 559.913 766.561 559.813 766.435 559.686C766.308 559.56 766.208 559.41 766.14 559.245C766.072 559.08 766.037 558.903 766.038 558.724V543.368Z" fill="black"/>
<g clip-path="url(#clip0_102_6)">
<path fill-rule="evenodd" clip-rule="evenodd" d="M1071.61 526.878C1072.41 527.612 1072.92 529.144 1073.03 530.068C1074.21 530.8 1075.6 532.276 1075.72 535.056C1077.83 536.518 1079.43 539.222 1077.43 543.176C1078.59 544.256 1079.89 547.552 1078.22 550.208C1076.28 553.312 1072.07 553.528 1067.87 552.974C1068.99 556.104 1069.41 558.992 1067.64 561.95C1065.88 564.574 1063.45 565 1062.62 565C1060.34 565 1058.78 563.042 1058.15 560.434C1057.92 559.706 1057.66 557.986 1057.55 557.534C1057.02 554.654 1055.24 552.35 1052.21 550.628C1050.87 549.854 1049.44 549.22 1047.97 548.736H1043.29C1042.25 548.736 1041 547.682 1041 546.406V531.134C1041.15 529.69 1041.95 528.97 1043.4 528.97H1049.62C1052.35 528.35 1055.07 527.686 1057.78 526.98C1060.4 526.274 1060.97 526.04 1062.81 525.536C1066.91 524.472 1069.76 525.058 1071.61 526.878ZM1066.85 527.724C1065.21 527.724 1063.14 528.228 1062.22 528.522C1061.89 528.624 1061.33 528.792 1060.73 528.964L1060.13 529.138L1059.55 529.302L1058.43 529.618C1058.43 529.618 1055.61 530.374 1050.09 531.658C1049.88 531.682 1049.77 531.698 1049.75 531.702V546.462C1052.78 547.626 1055.13 549.038 1056.81 550.698C1059.34 553.186 1060.04 555.434 1060.46 558.312C1060.69 559.758 1061.08 560.924 1061.65 561.722C1061.82 561.961 1062.06 562.138 1062.34 562.224C1062.63 562.318 1063.04 562.324 1063.9 561.856C1064.77 561.384 1065.88 560.15 1066.09 558.312C1066.23 556.526 1065.75 554.978 1065.11 553.35C1064.89 552.795 1064.65 552.247 1064.39 551.706C1063.96 550.88 1064.61 549.508 1065.97 549.806C1067.78 550.316 1072.27 551.006 1074.81 549.806C1076.28 548.952 1076.65 547.574 1075.9 545.674C1075.66 545.238 1075.32 544.861 1074.91 544.568C1074.57 544.364 1073.91 543.48 1074.71 542.478C1075.5 541.208 1076.66 538.622 1073.73 537.01C1073.52 536.898 1073.35 536.733 1073.23 536.532C1073.11 536.332 1073.05 536.103 1073.05 535.87C1073.01 535.322 1073.1 533.29 1071.59 532.382C1071.23 532.188 1070.79 532.028 1070.55 531.562C1070.39 531.254 1070.34 530.506 1070.34 530.506C1070.14 529.242 1069.85 528.062 1066.85 527.724ZM1047.04 531.696H1043.72V546.01H1047.04V531.696Z" fill="black" fill-opacity="0.89"/>
</g>
<rect x="660.5" y="200.5" width="519" height="79" rx="39.5" fill="#2A3E56" stroke="#536E90"/>
<rect x="660" y="300" width="160" height="130" rx="25" fill="#32A7E2"/>
<rect x="840" y="300" width="160" height="130" rx="25" fill="#FF8F08"/>
<rect x="1020" y="300" width="160" height="130" rx="25" fill="#FF8F08"/>
<rect opacity="0.1" x="660" y="449" width="520" height="50" rx="25" fill="#313E61" stroke="#536E90" stroke-width="2"/>
<g clip-path="url(#clip1_102_6)">
<path d="M1154 221V236.601C1153.54 236.145 1153.06 235.738 1152.54 235.38C1152.01 235.022 1151.46 234.68 1150.88 234.354V224.125H1147.75V227.25H1144.62V224.125H1113.38V227.25H1110.25V224.125H1107.12V252.25H1110.25V249.125H1113.38V252.25H1130.64L1127.51 255.375H1104V221H1154ZM1147.75 230.375V233.134C1147.23 233.004 1146.71 232.906 1146.19 232.841C1145.67 232.776 1145.15 232.735 1144.62 232.719V230.375H1147.75ZM1113.38 239.75H1110.25V236.625H1113.38V239.75ZM1113.38 233.5H1110.25V230.375H1113.38V233.5ZM1110.25 242.875H1113.38V246H1110.25V242.875ZM1144.62 236.625C1145.91 236.625 1147.12 236.869 1148.26 237.357C1149.4 237.846 1150.39 238.513 1151.24 239.359C1152.09 240.206 1152.76 241.207 1153.27 242.362C1153.77 243.518 1154.02 244.73 1154 246C1154 247.302 1153.76 248.515 1153.27 249.638C1152.78 250.761 1152.11 251.754 1151.27 252.616C1150.42 253.479 1149.42 254.154 1148.26 254.643C1147.11 255.131 1145.89 255.375 1144.62 255.375C1143.65 255.375 1142.7 255.229 1141.79 254.936C1140.88 254.643 1140.02 254.203 1139.21 253.617L1128.54 264.286C1128.23 264.595 1127.86 264.75 1127.44 264.75C1127.01 264.75 1126.65 264.595 1126.34 264.286C1126.03 263.977 1125.88 263.611 1125.88 263.188C1125.88 262.764 1126.03 262.398 1126.34 262.089L1137.01 251.42C1136.44 250.622 1136.01 249.768 1135.71 248.856C1135.42 247.945 1135.27 246.993 1135.25 246C1135.25 244.714 1135.49 243.502 1135.98 242.362C1136.47 241.223 1137.14 240.23 1137.98 239.384C1138.83 238.537 1139.82 237.862 1140.96 237.357C1142.1 236.853 1143.32 236.609 1144.62 236.625ZM1144.62 252.25C1145.49 252.25 1146.29 252.087 1147.04 251.762C1147.79 251.436 1148.46 250.989 1149.04 250.419C1149.63 249.849 1150.08 249.19 1150.39 248.441C1150.7 247.693 1150.86 246.879 1150.88 246C1150.88 245.137 1150.71 244.332 1150.39 243.583C1150.06 242.834 1149.61 242.167 1149.04 241.581C1148.47 240.995 1147.82 240.548 1147.07 240.238C1146.32 239.929 1145.5 239.766 1144.62 239.75C1143.76 239.75 1142.96 239.913 1142.21 240.238C1141.46 240.564 1140.79 241.011 1140.21 241.581C1139.62 242.151 1139.17 242.81 1138.86 243.559C1138.55 244.307 1138.39 245.121 1138.38 246C1138.38 246.863 1138.54 247.668 1138.86 248.417C1139.19 249.166 1139.64 249.833 1140.21 250.419C1140.78 251.005 1141.43 251.452 1142.18 251.762C1142.93 252.071 1143.75 252.234 1144.62 252.25Z" fill="black"/>
</g>
<defs>
<filter id="filter0_d_102_6" x="656" y="520" width="248" height="62" filterUnits="userSpaceOnUse" color-interpolation-filters="sRGB">
<feFlood flood-opacity="0" result="BackgroundImageFix"/>
<feColorMatrix in="SourceAlpha" type="matrix" values="0 0 0 0 0 0 0 0 0 0 0 0 0 0 0 0 0 0 127 0" result="hardAlpha"/>
<feOffset dy="8"/>
<feGaussianBlur stdDeviation="2"/>
<feComposite in2="hardAlpha" operator="out"/>
<feColorMatrix type="matrix" values="0 0 0 0 0 0 0 0 0 0 0 0 0 0 0 0 0 0 0.25 0"/>
<feBlend mode="normal" in2="BackgroundImageFix" result="effect1_dropShadow_102_6"/>
<feBlend mode="normal" in="SourceGraphic" in2="effect1_dropShadow_102_6" result="shape"/>
</filter>
<filter id="filter1_d_102_6" x="936" y="520" width="248" height="62" filterUnits="userSpaceOnUse" color-interpolation-filters="sRGB">
<feFlood flood-opacity="0" result="BackgroundImageFix"/>
<feColorMatrix in="SourceAlpha" type="matrix" values="0 0 0 0 0 0 0 0 0 0 0 0 0 0 0 0 0 0 127 0" result="hardAlpha"/>
<feOffset dy="8"/>
<feGaussianBlur stdDeviation="2"/>
<feComposite in2="hardAlpha" operator="out"/>
<feColorMatrix type="matrix" values="0 0 0 0 0 0 0 0 0 0 0 0 0 0 0 0 0 0 0.25 0"/>
<feBlend mode="normal" in2="BackgroundImageFix" result="effect1_dropShadow_102_6"/>
<feBlend mode="normal" in="SourceGraphic" in2="effect1_dropShadow_102_6" result="shape"/>
</filter>
<linearGradient id="paint0_linear_102_6" x1="1187.4" y1="2.53762e-05" x2="571.722" y2="1194.65" gradientUnits="userSpaceOnUse">
<stop stop-color="#536E90"/>
<stop offset="1" stop-color="#2A3E56"/>
</linearGradient>
<clipPath id="clip0_102_6">
<rect width="40" height="40" fill="white" transform="translate(1040 525)"/>
</clipPath>
<clipPath id="clip1_102_6">
<rect width="50" height="50" fill="white" transform="translate(1104 215)"/>
</clipPath>
</defs>
</svg>
