<svg width="40" height="40" viewBox="0 0 40 40" fill="none" xmlns="http://www.w3.org/2000/svg">
<path d="M2.71961 18.99V33.304H8.77961L9.08561 33.34C14.7116 34.652 18.4396 35.598 20.2976 36.184C22.7656 36.962 23.6856 37.152 25.3596 37.264C26.6116 37.35 28.0336 36.868 28.6816 36.208C29.0396 35.844 29.3076 35.096 29.4136 33.936C29.4356 33.6928 29.5225 33.4599 29.6654 33.2618C29.8082 33.0637 30.0017 32.9077 30.2256 32.81C30.7236 32.594 31.1376 32.242 31.4836 31.73C31.8036 31.262 32.0116 30.39 32.0496 29.128C32.0563 28.896 32.1221 28.6696 32.2407 28.4701C32.3594 28.2706 32.5269 28.1047 32.7276 27.988C33.8916 27.314 34.4676 26.554 34.5876 25.662C34.7196 24.676 34.3996 23.566 33.5616 22.302C33.365 22.0056 33.2918 21.6442 33.3575 21.2946C33.4232 20.945 33.6228 20.6348 33.9136 20.43C34.7156 19.866 35.1556 19.082 35.2656 17.97C35.4416 16.198 34.3116 14.888 31.7536 14.626C29.4754 14.4007 27.1751 14.5925 24.9656 15.192C24.715 15.2575 24.4508 15.2501 24.2043 15.1706C23.9578 15.0911 23.739 14.9428 23.5739 14.7432C23.4088 14.5436 23.3041 14.301 23.2721 14.0439C23.2402 13.7868 23.2823 13.526 23.3936 13.292C24.3936 11.176 24.9496 9.43004 25.0796 8.07804C25.2496 6.28404 24.8356 4.98404 23.8676 3.91204C23.1336 3.10004 21.9596 2.63604 21.5196 2.73204C20.9396 2.85604 20.5616 3.19204 20.0696 4.36804C19.7796 5.06404 19.6396 5.65604 19.3996 7.03804C19.1696 8.35004 19.0436 8.94204 18.7816 9.71804C17.9916 12.07 16.0536 14.508 13.4516 16.19C11.628 17.3675 9.65161 18.2894 7.57761 18.93C7.44804 18.97 7.3132 18.9902 7.17761 18.99H2.71961ZM2.63561 36.03C1.98961 36.048 1.40961 35.904 0.923614 35.564C0.303614 35.13 0.0116139 34.446 0.00561393 33.658L0.0116139 19.012C-0.0563861 18.232 0.173614 17.516 0.717614 16.984C1.22761 16.484 1.89361 16.248 2.59761 16.264H6.96761C8.73533 15.7008 10.4207 14.9059 11.9796 13.9C14.0756 12.544 15.6196 10.6 16.2096 8.84804C16.4116 8.24404 16.5196 7.74404 16.7236 6.56804C16.9996 4.99004 17.1716 4.25604 17.5676 3.31204C18.3876 1.34804 19.4636 0.388037 20.9476 0.0660368C22.4076 -0.249963 24.5336 0.592037 25.8776 2.08004C27.3676 3.72804 28.0256 5.79004 27.7816 8.33804C27.6776 9.43404 27.3736 10.66 26.8736 12.026C28.5812 11.7772 30.3129 11.7396 32.0296 11.914C36.0436 12.324 38.2976 14.938 37.9696 18.242C37.8256 19.666 37.3096 20.876 36.4316 21.826C37.1696 23.248 37.4636 24.654 37.2796 26.026C37.0676 27.606 36.1876 28.922 34.7236 29.944C34.6096 31.33 34.2916 32.436 33.7276 33.264C33.2832 33.933 32.7034 34.5012 32.0256 34.932C31.8096 36.3 31.3556 37.37 30.6136 38.122C29.3836 39.374 27.1856 40.12 25.1776 39.984C23.2716 39.856 22.1436 39.624 19.4836 38.784C17.7296 38.23 14.0976 37.31 8.62361 36.03H2.63561ZM6.03761 18.368C6.03709 18.1891 6.07188 18.0118 6.13999 17.8464C6.2081 17.6809 6.30819 17.5305 6.43453 17.4038C6.56087 17.2771 6.71097 17.1765 6.87624 17.1079C7.0415 17.0393 7.21868 17.004 7.39761 17.004C7.57621 17.0046 7.75296 17.0403 7.91776 17.1091C8.08256 17.1779 8.23219 17.2785 8.35811 17.4052C8.48403 17.5319 8.58376 17.6821 8.65162 17.8473C8.71948 18.0125 8.75414 18.1894 8.75361 18.368V33.724C8.75388 33.9026 8.71896 34.0795 8.65086 34.2446C8.58275 34.4097 8.4828 34.5598 8.35669 34.6863C8.23059 34.8128 8.08081 34.9132 7.91591 34.9818C7.75101 35.0503 7.57421 35.0858 7.39561 35.086C7.21702 35.0858 7.04022 35.0503 6.87532 34.9818C6.71041 34.9132 6.56064 34.8128 6.43453 34.6863C6.30843 34.5598 6.20848 34.4097 6.14037 34.2446C6.07227 34.0795 6.03735 33.9026 6.03761 33.724V18.368Z" fill="black"/>
</svg>
