<svg width="40" height="40" viewBox="0 0 40 40" fill="none" xmlns="http://www.w3.org/2000/svg">
<g clip-path="url(#clip0_102_68)">
<path fill-rule="evenodd" clip-rule="evenodd" d="M31.614 1.878C32.406 2.612 32.924 4.144 33.026 5.068C34.206 5.8 35.602 7.276 35.724 10.056C37.83 11.518 39.43 14.222 37.432 18.176C38.592 19.256 39.886 22.552 38.222 25.208C36.284 28.312 32.072 28.528 27.874 27.974C28.994 31.104 29.414 33.992 27.642 36.95C25.88 39.574 23.448 40 22.616 40C20.34 40 18.78 38.042 18.148 35.434C17.918 34.706 17.656 32.986 17.554 32.534C17.024 29.654 15.242 27.35 12.214 25.628C10.8669 24.8542 9.44414 24.2203 7.968 23.736H3.288C2.246 23.736 1 22.682 1 21.406V6.134C1.148 4.69 1.95 3.97 3.404 3.97H9.624C12.352 3.35 15.072 2.686 17.782 1.98C20.4 1.274 20.974 1.04 22.806 0.535999C26.912 -0.528001 29.762 0.0579991 31.614 1.878ZM26.85 2.724C25.212 2.724 23.138 3.228 22.218 3.522C21.894 3.624 21.326 3.792 20.728 3.964L20.128 4.138L19.552 4.302L18.432 4.618C18.432 4.618 15.612 5.374 10.086 6.658C9.88 6.682 9.77 6.698 9.754 6.702V21.462C12.776 22.626 15.13 24.038 16.814 25.698C19.342 28.186 20.044 30.434 20.458 33.312C20.694 34.758 21.076 35.924 21.652 36.722C21.8174 36.9611 22.0583 37.1379 22.336 37.224C22.63 37.318 23.036 37.324 23.902 36.856C24.768 36.384 25.882 35.15 26.092 33.312C26.232 31.526 25.752 29.978 25.108 28.35C24.8857 27.7953 24.6476 27.2471 24.394 26.706C23.958 25.88 24.614 24.508 25.966 24.806C27.778 25.316 32.274 26.006 34.81 24.806C36.284 23.952 36.65 22.574 35.904 20.674C35.6574 20.2384 35.3197 19.8612 34.914 19.568C34.574 19.364 33.91 18.48 34.708 17.478C35.5 16.208 36.658 13.622 33.728 12.01C33.5235 11.8976 33.3527 11.7327 33.2332 11.5323C33.1137 11.332 33.0497 11.1033 33.048 10.87C33.008 10.322 33.096 8.29 31.588 7.382C31.228 7.188 30.794 7.028 30.548 6.562C30.392 6.254 30.342 5.506 30.342 5.506C30.136 4.242 29.852 3.062 26.85 2.724ZM7.038 6.696H3.722V21.01H7.038V6.696Z" fill="black" fill-opacity="0.89"/>
</g>
<defs>
<clipPath id="clip0_102_68">
<rect width="40" height="40" fill="white"/>
</clipPath>
</defs>
</svg>
