<svg width="50" height="50" viewBox="0 0 50 50" fill="none" xmlns="http://www.w3.org/2000/svg">
<g clip-path="url(#clip0_102_75)">
<path d="M50 6V21.6006C49.5443 21.1449 49.056 20.738 48.5352 20.3799C48.0143 20.0218 47.4609 19.68 46.875 19.3545V9.125H43.75V12.25H40.625V9.125H9.375V12.25H6.25V9.125H3.125V37.25H6.25V34.125H9.375V37.25H26.6357L23.5107 40.375H0V6H50ZM43.75 15.375V18.1338C43.2292 18.0036 42.7083 17.9059 42.1875 17.8408C41.6667 17.7757 41.1458 17.735 40.625 17.7188V15.375H43.75ZM9.375 24.75H6.25V21.625H9.375V24.75ZM9.375 18.5H6.25V15.375H9.375V18.5ZM6.25 27.875H9.375V31H6.25V27.875ZM40.625 21.625C41.9108 21.625 43.1234 21.8691 44.2627 22.3574C45.402 22.8457 46.3949 23.513 47.2412 24.3594C48.0876 25.2057 48.763 26.2067 49.2676 27.3623C49.7721 28.5179 50.0163 29.7305 50 31C50 32.3021 49.7559 33.5146 49.2676 34.6377C48.7793 35.7607 48.112 36.7536 47.2656 37.6162C46.4193 38.4788 45.4183 39.1543 44.2627 39.6426C43.1071 40.1309 41.8945 40.375 40.625 40.375C39.6484 40.375 38.7044 40.2285 37.793 39.9355C36.8815 39.6426 36.0189 39.2031 35.2051 38.6172L24.5361 49.2861C24.2269 49.5954 23.8607 49.75 23.4375 49.75C23.0143 49.75 22.6481 49.5954 22.3389 49.2861C22.0296 48.9769 21.875 48.6107 21.875 48.1875C21.875 47.7643 22.0296 47.3981 22.3389 47.0889L33.0078 36.4199C32.4382 35.6224 32.0068 34.7679 31.7139 33.8564C31.4209 32.945 31.2663 31.9928 31.25 31C31.25 29.7142 31.4941 28.5016 31.9824 27.3623C32.4707 26.223 33.138 25.2301 33.9844 24.3838C34.8307 23.5374 35.8236 22.862 36.9629 22.3574C38.1022 21.8529 39.3229 21.6087 40.625 21.625ZM40.625 37.25C41.4876 37.25 42.2933 37.0872 43.042 36.7617C43.7907 36.4362 44.458 35.9886 45.0439 35.4189C45.6299 34.8493 46.0775 34.1901 46.3867 33.4414C46.696 32.6927 46.8587 31.8789 46.875 31C46.875 30.1374 46.7122 29.3317 46.3867 28.583C46.0612 27.8343 45.6136 27.167 45.0439 26.5811C44.4743 25.9951 43.8151 25.5475 43.0664 25.2383C42.3177 24.929 41.5039 24.7663 40.625 24.75C39.7624 24.75 38.9567 24.9128 38.208 25.2383C37.4593 25.5638 36.792 26.0114 36.2061 26.5811C35.6201 27.1507 35.1725 27.8099 34.8633 28.5586C34.554 29.3073 34.3913 30.1211 34.375 31C34.375 31.8626 34.5378 32.6683 34.8633 33.417C35.1888 34.1657 35.6364 34.833 36.2061 35.4189C36.7757 36.0049 37.4349 36.4525 38.1836 36.7617C38.9323 37.071 39.7461 37.2337 40.625 37.25Z" fill="black"/>
</g>
<defs>
<clipPath id="clip0_102_75">
<rect width="50" height="50" fill="white"/>
</clipPath>
</defs>
</svg>
