<svg width="50" height="50" viewBox="0 0 50 50" fill="none" xmlns="http://www.w3.org/2000/svg">
<path d="M18.9063 29.6875L25 25.9896L31.0938 29.6875L29.4792 22.7604L34.8958 18.0729L27.7604 17.5L25 10.9375L22.2396 17.5L15.1042 18.0729L20.5208 22.7604L18.9063 29.6875ZM4.16667 45.8333V8.33334C4.16667 7.18751 4.575 6.20695 5.39167 5.39167C6.20833 4.57639 7.18889 4.16806 8.33333 4.16667H41.6667C42.8125 4.16667 43.7938 4.57501 44.6104 5.39167C45.4271 6.20834 45.8347 7.18889 45.8333 8.33334V33.3333C45.8333 34.4792 45.4257 35.4604 44.6104 36.2771C43.7951 37.0938 42.8139 37.5014 41.6667 37.5H12.5L4.16667 45.8333ZM10.7292 33.3333H41.6667V8.33334H8.33333V35.6771L10.7292 33.3333Z" fill="black"/>
</svg>
